<?xml version="1.0" encoding="utf-8"?><!DOCTYPE svg PUBLIC "-//W3C//DTD SVG 1.1//EN" "http://www.w3.org/Graphics/SVG/1.1/DTD/svg11.dtd"><svg id="%E9%87%8D%E7%88%AA%E9%BE%99_baryonyx" width="100" height="100" style="width:100px;height:100px;" version="1.1" xmlns="http://www.w3.org/2000/svg" viewBox="0 0 1024 1024" enable-background="new 0 0 1024 1024" xml:space="preserve"><path fill="#666" d="M1019.78 57.67 q6.22 3.93 3.27 10.48 q-2.62 4.26 -6.88 4.26 q-1.63 -0.33 -2.29 -1.31 q-4.91 9.82 -15.72 12.44 q-10.16 2.62 -4.59 -1.63 q9.17 -6.56 9.17 -12.45 q-3.27 2.62 -6.88 0.33 q-4.58 4.25 -9.82 4.25 q-4.92 -0.32 -1.97 -1.63 q4.59 -2.62 6.88 -5.57 q-1.64 -1.64 -2.95 -3.28 q-0.32 -0.32 -0.65 -0.98 q-11.14 7.21 -7.86 2.62 q3.6 -2.62 3.93 -6.55 l-2.62 -2.62 q-4.59 5.89 -8.19 5.4 q-3.61 -0.49 -1.31 -1.47 q3.6 -1.64 4.91 -7.21 l-0.98 -0.65 q-3.28 -1.31 -6.88 -2.29 q-2.95 6.87 -3.6 3.6 q0.32 -2.29 -1.31 -4.92 q-0.99 -0.32 -2.62 -0.32 q-3.28 7.2 -3.61 3.93 q0 -1.97 -1.31 -4.59 q-2.95 -0.65 -5.89 -0.98 q-2.95 -0.33 -6.88 1.64 q-2.95 1.64 -1.64 4.26 q2.62 3.27 4.59 6.55 q3.27 0.98 6.22 0 q3.6 -0.33 -2.95 4.91 q0.98 1.31 1.64 2.95 q2.95 -0.98 3.93 -2.29 q3.28 -1.64 -0.98 5.89 q0.65 1.31 1.31 2.62 q2.62 -0.65 3.93 -1.96 q3.27 -1.31 -1.31 5.57 q0.98 1.31 1.96 2.62 q5.57 0 8.52 -2.95 q1.31 -1.97 0.98 1.31 q-0.33 3.27 -6.55 6.22 q0.66 0.66 0.98 1.64 q3.93 0.65 8.52 -2.62 q5.57 -1.97 -5.24 7.53 l2.62 3.61 q3.93 0.65 8.52 -3.28 q2.29 -2.95 1.31 0.66 q-0.66 3.6 -6.55 7.86 q1.31 1.63 2.29 2.95 q4.26 -1.97 8.19 -9.5 q1.64 -3.61 2.29 1.63 q0 4.92 -3.28 10.49 q1.31 0 2.63 0.98 l2.29 1.96 q2.29 0.99 3.27 2.62 q0.99 9.83 -8.84 8.85 q-7.21 -1.97 -13.1 -6.88 q-8.19 -6.88 -14.74 -15.4 q-7.54 -6.22 -16.71 -6.87 q-29.15 -9.18 -58.63 -17.04 q-15.73 -5.24 -31.78 2.95 q-7.53 3.6 -16.37 5.9 q-3.28 0.65 -6.56 2.29 q-2.29 0.98 -5.24 1.31 l-2.29 0.65 q-2.29 0 -3.27 0.33 l-0.66 0 q-17.36 1.97 -19.98 19 q-0.66 2.29 -1.97 4.26 q-7.53 13.76 -20.63 22.6 q-13.43 7.21 -10.49 21.95 q3.61 5.89 5.57 11.13 q1.97 14.09 14.74 19.99 q4.92 4.25 9.5 9.17 q1.97 2.29 4.26 4.26 q8.19 3.6 16.38 -1.31 q2.62 -1.31 2.29 0.98 q0 1.31 -0.65 1.96 q-4.59 7.54 -13.27 9.01 q-8.68 1.48 -15.89 -4.09 q-4.58 -2.95 -8.51 -6.55 q-2.62 -1.97 -2.62 0.98 q1.96 5.57 2.29 10.48 q-2.29 11.47 8.52 16.71 q2.94 0.98 0 1.63 q-8.52 1.64 -13.11 -3.6 q-3.6 -4.59 -5.89 -10.15 q-1.64 -2.62 -2.95 0 q-0.33 4.25 2.29 7.86 q1.64 2.62 -1.31 2.29 q-7.53 -1.96 -8.19 -10.81 q-2.29 -14.08 -5.56 -27.84 q-1.97 -7.54 -4.59 -14.74 q-1.31 -5.24 -3.6 -10.16 q-2.62 -4.91 -6.56 -9.5 q-2.29 -3.27 -1.96 -10.15 q-0.33 -3.28 -3.6 -3.28 q-10.49 0.66 -20.97 0.66 q-19.98 2.29 -39.31 7.86 q-3.27 0.98 -4.91 1.97 q-0.98 0.98 -0.98 1.63 q-4.59 8.19 -12.78 10.49 q-19.32 7.2 -40.29 7.86 q-7.53 -0.33 -13.1 5.89 q-6.22 7.54 -13.43 12.78 q-5.57 2.95 -2.29 8.19 q4.58 11.13 14.74 17.36 q4.91 2.95 3.27 8.52 q-1.63 11.79 0.99 22.6 q3.27 10.48 9.5 20.31 q4.91 10.81 -0.33 17.36 q-2.95 1.96 -3.93 -1.31 q-1.31 -5.57 -3.93 -8.85 q-3.28 -1.64 -7.86 -1.31 q-2.95 -0.33 -4.26 -3.6 q-0.99 -4.91 -3.61 -8.52 q-3.6 -4.26 -7.86 -13.1 q-4.26 -8.84 -4.91 -14.41 q-0.66 -9.83 -3.93 -19.33 q-2.29 -5.9 -5.9 -10.48 q-1.96 -2.62 -5.24 -3.28 q-20.96 0 -38.98 8.19 q-7.21 3.28 -13.43 8.85 q-6.22 5.56 -12.77 10.48 q-16.71 7.53 -21.62 25.22 q-0.66 2.95 -3.93 5.24 q-8.85 5.57 -7.54 15.4 q1.97 9.17 11.47 10.81 q8.51 3.27 8.84 11.79 q-0.33 2.95 -2.95 0.98 q-8.84 -6.88 -14.08 -2.62 q-2.95 1.64 -5.57 0 q-4.91 -2.95 -8.84 -5.9 q-2.95 -1.63 -3.94 -3.6 q-2.62 -7.53 -2.62 -14.74 q0.33 -10.81 1.64 -20.63 q1.64 -10.16 14.74 -14.42 l0.33 -0.65 q10.81 -11.14 19.98 -23.59 q7.86 -12.44 21.62 -15.72 q17.69 -3.28 30.46 -17.03 q10.16 -11.47 20.97 -22.93 q3.93 -6.23 -2.95 -10.48 q-6.22 -3.28 -12.12 -6.88 q-1.97 -1.64 -3.93 -2.62 q-9.5 -3.28 -19 -6.56 q-5.24 -2.29 -10.81 -3.93 q-2.62 -0.65 -5.57 -1.31 q-17.03 -0.98 -34.39 -1.96 q-16.71 -0.98 -33.09 -1.97 q-3.27 0 -6.87 0.66 q-1.97 0.33 -3.94 -0.33 l-15.06 -3.28 q-26.21 -3.27 -51.43 -8.51 q-29.81 -6.88 -58.31 -16.38 q-4.25 -0.98 -8.19 -2.29 q-50.44 -13.11 -101.87 -18.02 l-8.51 0 q-24.9 0.33 -49.79 3.6 q-32.1 4.26 -63.55 11.8 q-16.38 4.58 -32.76 11.79 q-10.81 4.26 -21.94 7.86 q-1.31 0 -3.28 -0.98 q-2.95 -1.64 -1.64 -4.59 q0.99 -1.64 2.3 -2.62 q28.17 -13.1 56.99 -24.24 q35.71 -14.41 74.03 -20.31 q33.08 -5.89 66.17 -9.17 q41.27 -1.64 82.22 5.24 q43.89 6.55 88.11 12.78 q9.17 1.31 18.02 0.65 q20.31 -1.96 39.96 -4.58 q2.62 -0.33 5.24 -0.33 q3.28 0 2.62 -0.98 q-0.65 -0.99 2.29 -1.97 q4.26 -0.98 8.19 -2.62 q5.9 -1.97 11.8 -4.26 q13.43 -4.91 28.17 -7.86 q17.36 -4.26 35.7 -5.9 q6.22 -0.65 11.79 -3.27 q13.43 -6.23 28.17 -8.19 q0.99 0 1.31 -0.33 q1.64 -0.65 4.92 -1.64 q0.98 -0.65 2.62 -1.31 q3.27 -0.98 5.24 -1.63 q1.31 -0.66 2.29 -0.66 q21.62 -1.64 43.57 -2.29 q12.12 -0.66 24.56 -1.31 q7.54 -1.31 14.42 -1.31 q18.01 1.96 35.37 4.91 q14.74 1.97 28.83 6.88 q9.17 3.6 18.67 5.57 q14.74 4.26 29.48 8.52 q0.98 0 2.29 0.65 l9.5 2.29 q21.29 5.57 42.26 -2.62 q14.08 -4.58 25.88 -12.44 q15.39 -13.43 34.39 -21.62 q27.84 -8.52 47.82 10.48 q8.85 9.5 19.33 4.26 q7.21 -4.26 12.12 2.94 q5.9 8.19 13.43 14.09 q2.29 1.31 5.24 3.28 q0 0.32 0 0.32 l3.6 2.3 l7.21 4.25 q11.79 6.23 23.26 13.11 l0 0 Z"/></svg>