<?xml version="1.0" encoding="utf-8"?><!DOCTYPE svg PUBLIC "-//W3C//DTD SVG 1.1//EN" "http://www.w3.org/Graphics/SVG/1.1/DTD/svg11.dtd"><svg id="%E8%91%AC_citipati" width="100" height="100" style="width:100px;height:100px;" version="1.1" xmlns="http://www.w3.org/2000/svg" viewBox="0 0 1024 1024" enable-background="new 0 0 1024 1024" xml:space="preserve"><path fill="#666" d="M581.78 569.1 q-1.53 3.85 -2.3 3.85 q-0.77 -0.77 -0.77 -4.62 q-0.77 -7.68 -8.45 -14.6 q-9.23 -7.68 -19.99 -9.99 q-18.44 -5.38 -36.12 -11.53 q-17.67 -8.45 -12.29 -29.2 q0.76 -1.54 0 -2.31 q0.76 -2.3 3.07 -5.38 l12.3 -12.29 q2.3 -2.31 2.3 -3.85 q-0.77 0 -3.84 2.31 q-3.08 3.07 -6.92 6.15 q-23.82 14.6 -46.88 29.2 q-26.13 16.14 -43.81 42.27 q-3.84 6.92 -7.68 13.07 q-3.07 3.07 -4.61 3.84 q-5.38 -1.54 -6.15 3.84 q-13.83 20.75 -21.52 44.58 q-7.68 16.9 -3.84 36.12 q3.07 11.53 7.68 15.37 q5.38 3.84 17.68 5.38 l4.61 0 q16.91 3.07 23.06 19.98 q0 2.31 -3.08 0.77 q-3.84 -2.31 -8.45 -4.61 q-2.31 -1.54 -4.61 0.77 q-10.76 6.91 -21.52 3.84 q-3.84 0.77 -4.61 3.84 q-1.54 3.08 -2.31 3.84 q-0.77 0 -2.3 -3.07 q-3.85 -9.22 -14.61 -6.15 q-1.53 0 -3.07 -0.77 q-16.14 -1.53 -16.91 -18.44 q-1.53 -6.92 -6.15 -13.83 q-1.53 -3.08 -3.07 -6.92 q-6.15 -13.07 2.31 -24.59 q0.76 -1.54 -1.54 -3.85 q-0.77 0 -1.54 -0.77 q-2.3 -1.53 0.77 -3.07 q6.15 -1.54 8.45 -9.22 q0.77 -0.77 1.54 -2.31 q6.15 -5.38 8.45 -12.29 q5.38 -15.38 8.46 -32.28 q-0.77 -9.23 6.15 -16.91 q0 -3.08 -0.77 -6.15 q-3.84 -5.38 0.77 -8.45 q6.91 -4.61 13.83 -10.76 q7.69 -5.38 14.6 -12.3 q13.07 -13.06 14.6 -31.51 q0 -12.3 5.38 -22.29 q11.53 -23.05 34.59 -36.12 q3.84 -3.07 6.15 -7.68 q1.53 -4.62 1.53 -9.23 q0 -3.07 -2.3 -5.38 q-15.37 -12.29 -31.51 -22.28 q-16.14 -10.76 -33.82 -17.68 q-40.73 -14.6 -84.54 -20.75 q-6.14 0 -11.52 1.54 q-19.99 3.84 -39.97 6.91 q-5.38 0 -9.99 -1.53 q-19.98 2.3 -39.96 3.84 q-13.84 3.07 -26.9 0.77 q-11.53 -2.31 -21.52 -3.85 l-3.84 0 q-3.08 -0.76 -3.08 -3.07 q0.77 -2.31 -1.54 -2.31 q-1.53 0 -3.07 -0.76 l-12.3 -1.54 q-6.91 0 -10.76 -5.38 q-0.76 -0.77 -2.3 -0.77 q-12.3 -2.3 -23.83 -6.15 q-1.53 0 -2.3 -0.77 q-2.31 -3.07 -5.38 -3.84 q-8.45 0 -17.68 -3.07 q-2.3 -2.31 0.77 -3.85 q0.77 -0.76 2.31 -1.53 q2.3 -1.54 -0.77 -2.31 q-21.52 -3.07 -39.2 -13.83 q-3.07 -1.54 -0.77 -3.08 q2.31 -2.3 -0.76 -3.84 q-9.23 -1.54 -17.68 -6.15 q-1.54 -3.07 1.54 -3.84 l8.45 -3.07 q3.07 -1.54 0 -3.08 q-12.3 -5.38 -23.82 -14.6 q-2.31 -2.31 1.53 -3.07 q5.38 0 10.76 -0.77 q2.31 0 0 -3.08 q-6.15 -4.61 -11.53 -9.99 q-3.07 -2.3 -3.07 -3.84 q0.77 -0.77 4.61 -1.54 l10.76 -1.53 q3.84 -0.77 1.54 -2.31 q-4.61 -6.15 -9.99 -13.07 q-2.31 -2.3 -1.54 -3.84 q0.77 -0.77 3.84 -0.77 q3.08 0 5.38 1.54 q30.74 9.99 61.49 20.75 q6.14 2.31 10.75 4.61 q13.84 9.99 29.21 16.91 q16.91 6.92 34.58 9.99 q29.21 6.15 58.41 10.76 q19.22 0.77 39.2 0.77 q38.42 1.54 76.85 1.54 q47.65 0 95.3 -1.54 q13.07 0 25.36 -3.08 q23.83 -6.14 46.88 -16.13 q23.06 -10.76 46.12 -23.06 q15.37 -10.76 32.27 -18.45 q25.37 -13.83 54.57 -22.28 q0 -0.77 -3.07 -0.77 q-2.31 -0.77 0.76 -2.31 q1.54 -0.77 3.08 -1.53 q4.61 0 7.68 -0.77 q11.53 -6.92 24.6 -3.85 q0.77 0 -0.77 -1.53 q0 -1.54 3.07 -1.54 l12.3 0 q24.59 -0.77 48.42 0 q11.53 2.31 23.05 -3.07 q4.61 -3.08 9.99 -6.15 q8.46 -3.84 16.91 -9.22 q24.6 -18.45 25.36 -48.42 q0.77 -12.3 1.54 -23.06 q0.77 -3.07 0 -4.61 q-3.07 -13.83 3.08 -24.59 q3.84 -6.15 9.22 -13.07 q2.3 -2.3 0.77 -3.84 q-1.54 -1.54 0.76 -3.08 q1.54 -1.53 3.08 -3.07 q2.3 -2.3 0 -3.07 l-0.77 -0.77 q-3.07 -0.77 0 -2.31 q2.31 -1.53 4.61 -3.07 q3.08 -2.31 0 -3.08 q-1.54 0 -2.3 -0.76 q-2.31 -1.54 -3.08 -2.31 q0.77 -0.77 3.84 -1.54 l11.53 -3.07 l3.08 0 q-0.77 -0.77 -3.08 -2.31 l-4.61 -1.53 q-3.07 -1.54 -3.07 -2.31 q0.77 -1.54 3.07 -1.54 q6.15 -0.77 13.07 -1.53 q2.3 -0.77 0 -2.31 q-3.85 -1.54 -6.92 -3.07 q-2.31 -0.77 -3.07 -1.54 q0.76 -0.77 3.84 -1.54 q9.99 -0.77 21.52 -1.53 q3.07 0 0 -2.31 l-3.85 -3.84 q-2.3 -2.31 -2.3 -3.08 q1.54 -0.77 4.61 -0.77 q7.69 2.31 14.6 3.85 q3.08 0.77 2.31 -0.77 q0 -2.31 0 -3.08 q0 0 3.07 0.77 q6.92 1.54 14.6 3.85 q3.08 0.76 1.54 -1.54 q-1.54 -2.31 -1.54 -3.08 q0.77 -0.76 3.85 0 q6.91 3.08 13.06 6.15 q3.08 0.77 3.08 -1.53 q-0.77 -3.08 -0.77 -3.85 q0.77 -0.77 3.84 1.54 q7.69 4.61 15.37 10.76 q3.08 1.54 2.31 -1.54 q-0.77 -3.84 -0.77 -4.61 q1.54 0 3.84 2.31 q7.69 6.15 14.6 13.06 q8.46 9.22 19.99 6.15 q16.9 -4.61 32.27 0.77 q20.75 9.99 26.9 32.28 q1.54 5.38 -4.61 7.68 q-6.92 3.08 -13.06 5.38 q-9.23 3.08 -10.76 12.3 q-1.54 11.53 -3.85 23.06 q-2.3 11.52 -13.06 17.67 q-0.77 0 -2.31 -1.54 q-0.77 -2.3 -3.84 -1.53 q-13.06 3.07 -25.36 -3.85 q-2.31 -0.76 -3.84 -0.76 q-13.07 -3.08 -24.6 -7.69 q-8.45 -3.07 -15.37 1.54 q-9.22 6.15 -16.91 12.29 q-16.14 10.76 -22.28 29.21 q-5.38 24.59 -6.92 49.19 q-0.77 13.83 -2.31 27.66 q-1.53 13.07 -9.99 24.6 q-9.22 13.83 -17.67 27.66 q-12.3 15.37 -31.51 22.29 q-5.38 2.31 -5.38 6.92 q-1.54 6.15 -4.61 12.29 q-2.31 2.31 -2.31 3.08 l0.77 0.77 q13.06 12.29 25.36 25.36 l1.54 1.54 q6.15 9.22 13.06 17.67 q12.3 10.76 22.29 23.06 q6.15 7.68 7.69 16.91 q3.07 9.22 -3.08 19.21 q-2.3 3.07 -2.3 0.77 l0 -2.31 q3.07 -13.83 -6.92 -23.82 q-3.08 -2.31 -5.38 -3.08 q-16.91 -1.53 -22.29 -18.44 q-4.61 -6.92 -9.22 -13.83 q-1.54 -3.08 -3.07 -2.31 q-0.77 0.77 0 3.84 q2.3 4.61 3.84 9.99 q0.77 10.76 1.53 21.52 q3.08 16.91 8.46 33.82 q6.15 19.98 -7.69 33.81 q-6.91 7.69 -16.9 9.99 q-3.08 0.77 -3.08 0 l0 -0.76 q0.77 -0.77 1.54 -0.77 q10.76 -8.46 13.83 -22.29 q1.54 -9.22 -5.38 -14.6 q-1.53 -2.31 -3.07 0 q-0.77 3.84 -2.31 6.91 q0 3.08 1.54 6.15 q2.31 1.54 2.31 1.54 q0 0.77 -3.08 0 q-3.07 -0.77 -6.15 0.77 q-6.91 7.68 -16.9 10.76 q-3.85 0.77 -1.54 -2.31 q6.91 -4.61 10.76 -13.06 q0 -3.08 -2.31 -2.31 q-22.29 8.46 -44.57 17.68 q-2.31 1.54 0 3.84 q3.07 3.84 6.14 7.69 q1.54 3.07 0.77 3.84 q-1.53 0.77 0 3.84 q3.85 4.61 8.46 9.99 q2.3 3.08 -0.77 1.54 q-16.14 -9.22 -26.9 -22.29 q-3.07 -4.61 -8.45 -3.07 q-7.69 1.53 -15.37 2.3 q-3.08 0.77 -3.85 -0.77 q0 -1.53 2.31 -3.07 q0.77 -2.3 2.3 -3.84 q2.31 -3.08 0.77 -5.38 q-0.77 -4.61 2.31 -7.69 q1.54 -3.07 -1.54 -3.84 q-3.84 0 -6.92 0.77 l-65.32 20.75 q-10.76 3.07 -22.29 4.61 q-2.3 0 -3.07 -0.77 q-0.77 -0.77 2.3 -3.84 q2.31 -1.54 5.38 -4.61 q2.31 -2.31 -1.53 -3.08 q-13.84 -2.3 -25.37 6.92 q-12.29 11.53 -23.05 23.06 q-4.61 4.61 -9.23 8.45 q-3.07 2.31 -2.3 3.84 q0.77 1.54 3.84 2.31 q23.83 6.15 48.42 10.76 q14.6 2.3 24.59 12.3 q15.37 14.6 35.36 20.75 q17.67 4.61 25.36 20.75 q1.53 3.84 2.3 7.68 q0 3.84 0 3.84 q-0.77 0 -3.07 -1.53 q-8.46 -11.53 -21.52 -8.46 q-3.84 1.54 -3.84 4.61 q0 6.15 -1.54 8.46 q-0.77 2.3 -3.07 -0.77 q-3.08 -8.45 -5.38 -9.22 q-3.08 0 -2.31 3.84 q3.84 10.76 0 17.68 q-2.31 3.07 -3.07 0 l0 -2.31 q-1.54 -11.53 -9.23 -12.3 q-12.29 0 -17.67 -10.76 q-9.99 -13.83 -26.13 -18.44 q-3.08 0 -4.61 3.07 q-2.31 3.08 -3.85 6.15 l0 0 Z"/></svg>