<?xml version="1.0" encoding="utf-8"?><!DOCTYPE svg PUBLIC "-//W3C//DTD SVG 1.1//EN" "http://www.w3.org/Graphics/SVG/1.1/DTD/svg11.dtd"><svg id="leyesaurus_leyesaurus" width="100" height="100" style="width:100px;height:100px;" version="1.1" xmlns="http://www.w3.org/2000/svg" viewBox="0 0 1024 1024" enable-background="new 0 0 1024 1024" xml:space="preserve"><path fill="#666" d="M816.41 63.52 q89.97 -10.03 177.98 -28.13 q14.49 -2.79 28.97 -5.57 q1.12 -0.28 0.28 0.56 q-3.62 2.22 -7.8 3.34 q-77.43 21.17 -152.08 51.25 q-120.33 50.97 -248.74 28.13 q-19.22 -1.67 -32.03 11.7 q-1.12 0.84 0 1.39 q24.23 7.52 38.99 26.19 q10.87 14.2 28.69 19.22 q14.21 3.06 15.88 18.1 q1.12 11.14 4.74 21.73 q4.45 14.76 -5.57 23.67 q-10.31 7.25 -23.68 11.15 q-0.56 0.27 -1.11 0.27 q-1.12 0.56 -1.68 0.56 l0 0.28 q-9.19 5.57 -8.91 4.46 q-0.28 -0.84 0.28 -1.68 q0.28 -1.39 -0.84 -1.11 q-0.83 0.28 -2.22 1.11 q-2.51 2.23 -2.51 0.84 q0 -2.51 1.95 -5.85 q0.56 -0.83 -0.56 -0.56 l-5.01 1.95 q-1.4 0.56 -0.84 -0.83 q5.29 -8.36 14.49 -9.47 q6.12 -0.84 11.42 -2.79 q5.57 -1.95 6.96 -9.75 q1.39 -2.78 4.18 -5.57 q1.39 -2.23 1.67 -3.9 q-2.23 -22.28 -23.12 -30.92 q-12.81 -5.01 -25.63 -9.74 q-22 -7.8 -44.56 -12.26 q-18.66 -2.23 -27.58 -17.83 q-3.34 -5.85 -6.4 -12.25 q-1.12 -2.51 -3.07 -3.35 q-14.76 -1.11 -29.52 -1.95 q-1.12 0.28 -1.4 1.4 q-0.55 16.15 6.97 29.24 q2.78 7.25 -1.4 22.84 q-0.27 1.4 -0.27 1.95 q0 0.28 -0.28 0.56 q-3.35 9.47 -9.47 16.99 q-0.84 1.12 -0.56 1.12 q0.28 0.28 -0.56 1.11 q-8.08 4.46 -3.62 13.93 q0.56 0.83 -0.56 0.28 q-15.32 -4.18 -28.13 9.19 q-0.56 0.56 -0.83 -0.56 q-0.28 -1.39 -0.56 -2.78 q-0.28 -1.4 -1.67 -1.4 q-9.75 3.35 -8.92 1.95 q0 -0.83 0.84 -1.95 q0.84 -1.11 -0.28 -0.83 q-3.06 1.11 -5.85 2.23 q-1.11 0.27 -1.39 -1.12 q-0.28 -10.86 10.31 -11.42 q13.37 -1.11 20.89 -10.58 q0.27 -0.56 0.55 -0.84 q0.56 -1.11 0.56 -1.67 q0 0 0.28 -0.28 q2.78 -5.85 5.85 -9.75 q0.83 -0.83 1.67 -2.23 q12.81 -22.84 -5.01 -42.61 q-2.51 -2.23 -4.46 -5.02 q-2.79 -4.45 -7.52 -1.39 q-8.36 4.74 -17.27 8.36 q-18.11 6.4 -38.72 13.09 q-1.11 0.56 -0.83 1.67 q4.45 16.99 9.19 34.26 q0.83 3.62 0.83 7.24 q-1.11 6.97 -2.5 14.49 q-2.51 16.71 -18.67 19.77 q-3.34 0.84 -6.4 2.23 q-1.4 0.56 -2.51 1.39 q-4.18 3.63 -4.18 1.68 q0 -1.4 1.67 -3.9 q0.28 -1.12 -0.83 -1.12 q-3.34 0.28 -6.69 0.84 q-1.67 0.28 -2.78 0.55 q-4.46 3.63 -4.46 2.23 q-0.28 -0.83 0.56 -2.23 q0.56 -1.11 0.56 -1.94 q0 -0.84 -1.4 -0.56 q-3.9 0.83 -3.06 -0.84 q4.46 -3.9 7.52 -5.01 q1.39 -0.84 4.18 -0.84 q5.01 -0.55 9.47 -3.34 q4.18 -2.51 9.75 -0.56 q0.55 -0.28 1.95 -1.39 q4.73 -4.46 5.85 -11.7 q1.11 -7.8 -2.23 -13.37 q-4.74 -8.35 -8.64 -16.71 q-1.39 -2.79 -2.5 -5.85 q-0.56 -1.11 -0.56 0 q-1.67 20.61 -11.42 38.72 l-1.12 2.5 q-1.39 4.46 -3.9 6.97 q-1.39 0.83 -1.39 -8.64 q-0.28 -0.83 -1.67 -0.55 l-3.06 1.39 q-9.75 6.96 -9.47 5.29 q-0.28 -0.83 0.55 -3.06 q0.56 -0.84 -0.83 -0.28 q-7.24 6.13 -7.24 4.18 q0 -1.67 1.11 -4.46 q0.56 -1.39 -0.84 -0.84 q-5.57 4.74 -5.57 3.35 q0.28 -2.79 2.51 -6.13 q0.28 -1.39 1.11 -2.23 q0.28 -0.28 0.56 -0.56 q6.13 -4.45 13.09 -6.96 q11.98 -3.9 11.42 -15.6 q-1.39 -11.7 -3.62 -23.4 q0 -6.12 -5.85 -7.8 q-28.97 -9.74 -47.35 -33.98 q-2.23 -2.78 -5.85 -3.34 q-25.07 -4.74 -49.58 -8.91 q-89.13 -15.04 -177.99 -30.36 q-15.32 -2.79 -28.41 -6.13 q-1.11 -0.28 -2.78 0 l-11.7 3.62 q-6.97 3.06 -14.21 8.63 q-7.24 5.57 -14.48 4.74 q-7.8 -2.23 -5.3 -8.64 q0.84 -1.39 0.84 -1.95 q0.56 -3.06 3.9 1.68 q0.56 0.83 0.56 -0.56 q-0.56 -1.12 -0.84 -2.79 q0 -2.5 2.79 0.28 q1.11 0.56 0.83 -0.56 q-0.28 -1.11 -0.28 -1.95 q-0.27 -2.5 4.46 1.12 q1.39 0.56 0.84 -0.28 q-1.12 -1.95 -1.4 -4.46 q0 -2.5 4.18 1.12 q1.39 0.28 2.51 -0.28 q0.56 -1.11 0.83 -1.11 q1.68 -0.56 3.9 -1.68 q1.4 -0.55 1.12 -1.39 q-0.28 -0.83 -1.67 -0.83 q-3.07 0.55 -6.41 0.83 q-1.11 0 -0.84 -1.39 q0.28 -0.56 0.84 -0.84 q0.84 -0.83 0.28 -1.11 l-0.84 0 l-0.55 0 l-1.12 0 q-0.83 0.28 -1.11 1.39 q0.28 2.79 -1.39 1.12 l-0.84 -0.84 q-0.84 -0.84 -1.95 -0.56 q-0.84 0 -1.11 1.4 q0.27 2.5 -1.68 1.11 l-0.55 -0.84 q-0.56 -0.83 -1.12 -0.83 q-0.28 0 -0.28 1.67 q0.28 2.51 -1.67 0.84 q-0.28 0 -0.83 -0.56 q-0.56 -1.12 -1.12 -1.12 q-0.55 0.28 -0.28 1.68 q1.4 3.34 -1.11 2.22 q-1.95 -1.39 -3.34 -2.78 q-0.56 -1.39 -1.95 -2.23 l-0.28 -0.28 q-1.11 -0.83 -1.39 -2.23 q-0.56 -0.83 -0.56 -1.95 l0 -2.78 q0.28 -3.07 3.34 -4.18 q0.28 -0.28 0.56 -0.28 l3.34 -1.11 l2.79 -0.84 q4.45 -1.95 9.75 -3.06 q1.11 0 1.11 -0.28 q0.28 -0.28 1.67 -0.28 q13.65 -2.79 26.46 -2.23 q42.9 7.52 85.52 15.88 q1.11 0 2.78 0.28 q13.37 0.83 26.46 3.06 q0.84 0 1.12 0.56 q0.55 1.39 1.95 1.67 q15.6 2.51 31.47 3.34 q1.39 -0.28 2.79 -0.83 l1.39 0 q3.62 0.28 7.24 0.55 l0.84 0 q0.83 0.28 1.95 0.28 q20.89 -0.55 41.5 -6.13 q35.38 -11.14 69.64 -25.62 q60.16 -27.3 125.34 -37.6 q41.22 -6.13 79.94 10.02 q30.92 14.77 61.84 28.97 q44.84 20.89 94.14 25.91 q65.74 4.73 131.48 -3.07 l0 0 Z"/></svg>