<?xml version="1.0" encoding="utf-8"?><!DOCTYPE svg PUBLIC "-//W3C//DTD SVG 1.1//EN" "http://www.w3.org/Graphics/SVG/1.1/DTD/svg11.dtd"><svg id="%E8%BF%90%E8%A1%8C_running29" width="100" height="100" style="width:100px;height:100px;" version="1.1" xmlns="http://www.w3.org/2000/svg" viewBox="0 0 1024 1024" enable-background="new 0 0 1024 1024" xml:space="preserve"><path fill="#666" d="M46.8 219.02 q-42.31 -10.97 -46.23 -48.32 q-3.92 -37.34 19.07 -43.61 q3.13 0.52 3.13 4.18 q-5.75 23.5 23.51 51.71 q28.73 28.21 156.7 -41.27 q147.3 -83.05 234.27 -81.22 q86.98 1.83 117.79 28.47 q25.6 16.71 44.4 16.19 q19.33 -1.57 26.64 -6.27 q2.62 -1.57 1.05 -4.7 q-3.14 -4.7 2.61 -12.54 q2.09 -7.83 -2.61 -17.23 q-4.18 -9.41 19.33 -10.45 q22.46 -1.04 3.65 -4.7 q-19.33 -3.14 -39.17 4.7 q-14.11 4.7 13.58 -9.92 q27.16 -15.15 71.04 4.17 q40.74 19.85 43.87 1.57 q3.14 -18.28 -20.37 -17.76 q-19.85 3.66 1.05 -5.22 q20.37 -8.36 41.78 -8.88 q12.02 -0.52 3.66 -8.36 q-8.36 -7.84 37.09 -1.04 q101.33 17.76 64.77 -3.66 q-12.54 -10.45 15.67 1.57 q28.21 11.49 40.74 37.08 q12.02 24.55 47.01 37.09 q36.05 12.54 48.06 14.1 q7.84 3.14 3.66 12.54 q-4.18 9.4 -8.36 13.58 q-2.09 3.66 -1.57 16.19 q0.52 12.54 -10.45 20.37 q-2.61 1.05 -1.56 4.71 q4.7 11.49 2.87 27.16 q-1.83 15.67 -33.17 4.18 q-36.56 -14.11 -45.97 -4.18 q-9.92 9.92 -14.1 19.33 q-7.31 8.35 -22.46 16.71 q-15.15 7.84 -29.77 9.93 q-10.97 2.61 -11.5 18.28 q-0.52 15.67 -26.11 30.82 q-3.14 1.04 -1.05 -1.57 q3.14 -3.14 3.66 -12.54 q0 -3.65 -1.57 -6.79 q-6.79 -9.4 -20.89 -6.79 q-13.06 2.61 -10.45 28.73 q4.7 22.98 -11.49 9.4 q-16.19 -14.62 -44.4 19.33 q-24.55 32.91 -36.83 19.33 q-12.27 -13.58 -35.25 15.67 q-22.47 36.04 -42.05 48.58 q-19.59 12.53 -58.77 6.26 q-3.65 -0.52 -5.22 2.09 q-3.66 4.7 -5.75 12.54 q-2.09 8.36 3.66 15.67 q9.4 9.92 19.33 13.06 q9.92 3.66 7.31 11.49 q-6.79 9.4 -14.63 7.31 q-4.18 0 -6.79 1.57 q-5.22 3.13 -14.1 6.27 q-8.88 3.13 -15.15 1.57 q-8.36 -3.66 -22.46 -10.97 q-14.1 -7.32 -17.24 -14.63 q-1.56 -5.75 2.61 -7.83 q4.71 -2.62 5.75 -9.93 q1.05 -8.88 0.78 -24.03 q-0.26 -15.15 3.4 -25.07 q1.04 -2.61 0.52 -3.13 q0 -0.53 -0.52 -0.53 q-2.61 -2.09 -15.67 -4.7 q-13.58 -2.61 -43.36 -3.13 q-3.65 0 -6.26 -2.09 q-33.96 -29.78 -61.12 -46.23 q-27.16 -16.45 -19.85 -30.03 q13.06 -14.63 18.28 -43.36 q4.7 -28.21 -31.86 -60.07 q-3.13 -2.09 -5.75 -4.7 q-4.17 -2.09 -8.35 -8.62 q-4.18 -6.53 -1.57 -16.45 q4.18 -15.15 -7.31 -25.08 q-11.49 -9.92 -38.13 12.02 q-32.39 26.12 -108.13 51.19 q-75.74 25.07 -126.93 20.89 l0 0 ZM560.27 285.36 q-15.15 -5.75 -28.73 -15.67 q-13.58 -9.4 -21.42 -15.67 q0.52 0.52 3.66 7.31 q3.13 7.32 4.18 16.72 q2.61 9.92 19.85 17.76 q16.71 8.88 22.46 8.88 q5.22 -1.57 9.4 -7.32 q4.18 -6.26 -9.4 -12.01 l0 0 ZM437.52 274.91 q-3.14 9.41 -5.23 20.38 q-2.61 10.96 -2.61 11.49 q-0.52 2.09 12.54 15.14 q13.06 12.02 40.74 13.06 q27.68 0.53 34.47 13.06 q6.8 12.02 5.75 14.11 q0 -0.53 3.92 -6.79 q3.92 -6.27 9.14 -11.5 q-1.05 -2.09 -16.72 -10.97 q-16.19 -9.92 -38.13 -8.88 q-21.94 1.05 -29.25 -13.32 q-7.31 -14.36 -3.66 -22.2 q3.14 -7.83 2.09 -18.28 q-0.52 -10.44 -0.52 -11.49 q-3.65 0 -12.53 16.19 l0 0 Z"/></svg>