<?xml version="1.0" encoding="utf-8"?><!DOCTYPE svg PUBLIC "-//W3C//DTD SVG 1.1//EN" "http://www.w3.org/Graphics/SVG/1.1/DTD/svg11.dtd"><svg id="%E8%9C%98%E8%9B%9B_spider4" width="100" height="100" style="width:100px;height:100px;" version="1.1" xmlns="http://www.w3.org/2000/svg" viewBox="0 0 1024 1024" enable-background="new 0 0 1024 1024" xml:space="preserve"><path fill="#666" d="M125.86 90.29 q2.74 -2.05 7.53 -2.05 q10.26 0.68 25.99 4.79 q8.21 2.73 16.42 4.1 q3.42 -15.05 18.47 -43.09 q15.73 -28.05 38.3 -30.78 q10.95 0 20.52 8.89 q40.36 6.16 106.71 49.93 q10.95 6.84 19.16 12.32 q31.46 23.25 47.88 22.57 l1.37 0 q2.73 -4.1 3.42 -4.79 q-9.58 -2.05 -18.47 -10.94 q-7.53 -10.26 -5.48 -29.42 q2.06 -18.47 6.85 -32.83 q2.05 -4.1 3.42 -8.21 q4.1 -20.52 17.1 -29.41 q3.42 -1.37 8.89 -1.37 q15.73 0.68 23.94 6.16 q1.37 1.36 1.37 3.42 q-0.69 4.78 -7.53 7.52 q-7.52 3.42 -15.05 13.68 q-4.78 8.89 -8.89 21.21 q-2.73 6.15 -4.79 10.26 q-1.36 4.79 -3.42 12.99 q-1.36 8.21 1.37 14.37 q4.11 4.79 10.26 6.84 q3.42 -5.47 9.58 -8.21 q5.47 -3.42 11.63 -3.42 q8.89 0.68 11.63 3.42 q2.73 -3.42 11.62 -8.21 q9.58 -4.79 23.26 -5.47 l2.74 0 l3.42 0 q14.36 0.68 23.26 5.47 q8.89 4.79 12.31 8.21 q2.73 -2.74 10.94 -3.42 q6.84 0 12.32 3.42 q5.47 2.74 8.89 8.21 q6.84 -2.05 10.94 -6.84 q2.74 -6.16 0.69 -14.37 q-1.37 -8.2 -3.42 -12.99 q-2.06 -4.11 -4.11 -10.26 q-4.79 -12.32 -9.57 -21.21 q-6.85 -10.26 -14.37 -13.68 q-6.84 -2.74 -8.21 -7.52 q0 -2.06 1.37 -3.42 q8.89 -5.48 24.63 -6.16 q5.47 0 8.2 1.37 q13 8.89 17.79 29.41 l2.73 8.21 q4.79 14.36 6.85 32.83 q2.05 19.16 -5.48 29.42 q-8.21 8.89 -17.78 10.94 q0.68 0.69 2.73 4.79 l2.06 0 q16.41 0.68 47.19 -22.57 q8.9 -6.16 19.16 -12.32 q67.03 -43.77 106.71 -49.93 q10.26 -8.89 20.52 -8.89 q23.26 2.73 38.99 30.78 q15.05 27.36 18.47 43.09 l15.73 -4.1 q15.73 -4.11 26.68 -4.79 q4.1 0 6.15 2.05 q30.79 25.31 61.57 88.24 q30.78 64.3 36.25 80.72 q7.52 17.1 13 19.84 l2.73 2.73 q3.42 4.79 8.21 18.81 q4.79 14.03 4.79 20.87 q0 1.36 -1.37 2.05 l-1.37 0.68 q-2.05 0 -4.1 -6.15 q-2.05 -11.63 -17.79 -29.42 q-12.99 -12.99 -33.51 -51.98 q-7.53 -13.68 -29.42 -47.89 q-21.89 -34.88 -38.99 -53.35 l-2.73 -4.11 q-10.26 -12.31 -19.84 -11.62 q-4.1 0 -12.31 1.36 q8.21 16.42 17.1 36.94 q8.89 19.84 13.68 37.62 q4.79 21.21 9.23 50.96 q4.45 29.76 -1.02 35.92 q-4.11 0.68 -6.84 -17.1 q-3.42 -21.89 -17.79 -60.88 q-18.47 -43.1 -40.36 -75.25 q-17.78 6.16 -36.93 13.68 q-32.84 12.32 -54.73 19.16 q-20.52 6.84 -55.4 17.1 q-34.89 10.94 -49.25 16.41 q-4.79 1.37 -8.9 4.11 q30.79 13.68 51.99 43.78 q22.57 -10.95 47.88 -15.05 q6.16 -1.37 14.37 -1.37 q19.15 0 41.72 5.47 q22.58 5.47 37.63 17.79 q19.15 12.31 28.04 33.51 q9.58 22.58 11.63 33.52 q3.42 13.68 5.47 27.36 q0.69 13 -1.37 17.79 q-0.68 0.68 -2.73 0.68 q-3.42 0 -7.53 -14.36 q-3.42 -16.42 -13.68 -36.94 q-6.84 -11.63 -12.99 -21.89 q-8.21 -13.68 -15.05 -27.36 q-6.16 0.68 -18.47 -1.37 q-10.95 -2.05 -28.05 -3.42 l-11.63 0 q-2.73 0.69 -6.15 0.69 q-8.89 0.68 -19.84 -4.11 q-6.84 4.11 -34.2 13 q6.16 13.68 13 29.41 q12.31 28.05 15.04 58.83 q10.27 -3.42 24.63 -3.42 q15.05 -0.69 38.99 6.15 q9.58 4.11 34.2 22.58 q23.94 18.47 30.1 26.67 q4.79 13 2.05 17.79 q4.79 6.16 -2.05 43.78 q-3.42 13.68 -16.42 41.04 q-12.99 27.36 -19.83 30.78 q-2.06 0 -2.74 -1.37 q-3.42 -4.78 4.79 -35.57 q3.42 -11.62 4.79 -21.89 q2.73 -13.68 2.73 -25.3 q-0.68 -16.42 4.79 -26.68 q-10.26 -17.1 -28.05 -32.15 q-18.46 -15.05 -23.25 -17.79 q-3.42 0.69 -15.74 0.69 q-7.52 0 -13.68 -0.69 q-6.15 4.79 -12.99 9.58 q-6.16 3.42 -6.84 4.1 l-8.21 4.11 q-4.11 34.2 -19.15 64.98 q-16.42 30.78 -47.2 64.98 q-48.57 51.99 -81.74 77.98 q-33.18 26 -63.96 26 q-29.42 0 -62.93 -26 q-33.52 -25.99 -81.4 -77.98 q-31.47 -34.2 -47.2 -64.98 q-15.73 -30.78 -19.15 -64.98 l-8.9 -4.11 q0 -0.68 -6.84 -4.1 q-6.15 -4.79 -12.99 -9.58 q-6.16 0.69 -13 0.69 q-12.31 0 -15.73 -0.69 q-4.79 2.74 -23.26 17.79 q-17.79 15.05 -28.73 32.15 q6.16 10.26 5.47 26.68 q0 11.62 2.05 25.3 q2.06 10.27 4.79 21.89 q8.21 30.79 4.79 35.57 q-0.68 1.37 -2.05 1.37 q-7.53 -3.42 -20.52 -30.78 q-12.32 -27.36 -16.42 -41.04 q-6.16 -37.62 -2.05 -43.78 q-2.74 -4.79 2.05 -17.79 q6.84 -8.2 30.1 -26.67 q24.62 -18.47 34.88 -22.58 q23.26 -6.84 38.31 -6.15 q15.05 0 25.99 3.42 q1.37 -30.78 13 -58.83 q6.84 -15.73 14.36 -29.41 q-27.36 -8.89 -34.2 -13 q-10.94 4.79 -19.83 4.11 q-3.42 0 -6.84 -0.69 l-10.95 0 q-17.1 1.37 -28.73 3.42 q-11.63 2.05 -18.47 1.37 q-6.84 13.68 -15.05 27.36 q-6.15 10.26 -12.99 21.89 q-9.58 20.52 -13.68 36.94 q-3.42 14.36 -6.84 14.36 q-2.06 0 -2.74 -0.68 q-3.42 -4.79 -1.37 -17.79 q2.05 -13.68 4.79 -27.36 q2.74 -10.94 12.31 -33.52 q8.9 -21.88 27.36 -33.51 q15.74 -12.32 37.97 -17.79 q22.23 -5.47 42.07 -5.47 q8.2 0 14.36 1.37 q25.31 4.79 47.88 15.05 q21.21 -30.1 51.31 -43.78 q-4.11 -2.74 -8.9 -4.11 q-14.36 -5.47 -49.25 -16.41 q-34.88 -10.26 -55.4 -16.42 q-21.89 -7.52 -54.04 -19.84 q-19.84 -7.52 -36.94 -12.99 q-22.57 31.46 -41.04 74.56 q-13.68 38.99 -17.1 60.88 q-4.11 17.78 -6.84 17.1 l-1.37 0 q-4.79 -6.16 -0.34 -35.92 q4.44 -29.75 9.91 -50.96 q4.11 -17.78 13.69 -37.62 q8.2 -20.52 17.1 -36.94 q-8.21 -1.36 -13 -1.36 q-9.58 -0.69 -19.15 11.62 l-3.42 4.11 q-16.42 18.47 -38.99 53.35 q-21.21 34.21 -28.73 47.89 q-20.52 38.99 -34.2 51.98 q-15.05 17.79 -17.79 29.42 q-1.37 6.15 -4.1 6.15 l-0.69 -0.68 q-1.37 -0.69 -2.05 -2.05 q0 -6.84 5.47 -20.52 q4.79 -14.37 8.21 -19.16 q0.68 -1.37 2.74 -2.73 q5.47 -2.74 12.31 -19.84 q5.47 -16.42 36.6 -80.03 q31.12 -63.62 60.53 -88.93 l0 0 ZM244.88 55.41 l-1.36 0 q-10.26 2.05 -21.21 17.78 q-10.26 15.73 -17.1 28.05 q0.68 0.68 2.05 0.68 q29.42 4.79 60.2 13 q30.78 8.21 55.4 17.1 q9.58 3.42 17.79 6.84 q21.2 9.58 34.89 16.42 q15.04 7.52 23.94 10.26 l4.1 1.36 q2.05 -8.89 5.47 -17.1 q-4.1 -6.15 -9.57 -10.94 q-4.79 -2.05 -24.63 -8.89 q-19.15 -6.16 -36.25 -13 q-14.37 -5.47 -41.04 -21.89 q-26.68 -16.42 -52.68 -39.67 l0 0 ZM628.63 137.49 q-6.16 6.16 -10.26 12.31 q4.1 8.21 6.84 19.16 q8.21 -2.06 22.91 -9.24 q14.71 -7.18 41.39 -18.81 q26.67 -11.63 64.64 -21.89 q37.96 -10.26 73.53 -15.73 q-8.89 -17.1 -21.2 -32.83 q-11.63 -16.42 -21.89 -17.11 q-26 23.26 -51.99 38.99 q-26.68 17.11 -42.41 23.26 q-17.78 6.84 -37.62 13.68 q-19.84 6.16 -23.94 8.21 l0 0 Z"/></svg>